<svg id="visual" viewBox="0 0 960 100" width="960" height="100" xmlns="http://www.w3.org/2000/svg" xmlns:xlink="http://www.w3.org/1999/xlink" version="1.1"><path d="M0 37L11.5 35.3C23 33.7 46 30.3 68.8 34.2C91.7 38 114.3 49 137.2 56.7C160 64.3 183 68.7 205.8 64.5C228.7 60.3 251.3 47.7 274.2 40.2C297 32.7 320 30.3 342.8 28.8C365.7 27.3 388.3 26.7 411.2 33.7C434 40.7 457 55.3 480 57.5C503 59.7 526 49.3 548.8 43.3C571.7 37.3 594.3 35.7 617.2 34.2C640 32.7 663 31.3 685.8 28C708.7 24.7 731.3 19.3 754.2 17.8C777 16.3 800 18.7 822.8 22.8C845.7 27 868.3 33 891.2 40.7C914 48.3 937 57.7 948.5 62.3L960 67L960 101L948.5 101C937 101 914 101 891.2 101C868.3 101 845.7 101 822.8 101C800 101 777 101 754.2 101C731.3 101 708.7 101 685.8 101C663 101 640 101 617.2 101C594.3 101 571.7 101 548.8 101C526 101 503 101 480 101C457 101 434 101 411.2 101C388.3 101 365.7 101 342.8 101C320 101 297 101 274.2 101C251.3 101 228.7 101 205.8 101C183 101 160 101 137.2 101C114.3 101 91.7 101 68.8 101C46 101 23 101 11.5 101L0 101Z" fill="#e3f2ff"></path><path d="M0 32L11.5 32.5C23 33 46 34 68.8 33C91.7 32 114.3 29 137.2 31.8C160 34.7 183 43.3 205.8 49.7C228.7 56 251.3 60 274.2 54.7C297 49.3 320 34.7 342.8 30.7C365.7 26.7 388.3 33.3 411.2 39.7C434 46 457 52 480 51.3C503 50.7 526 43.3 548.8 45.2C571.7 47 594.3 58 617.2 60.3C640 62.7 663 56.3 685.8 49.8C708.7 43.3 731.3 36.7 754.2 39C777 41.3 800 52.7 822.8 57.7C845.7 62.7 868.3 61.3 891.2 59.3C914 57.3 937 54.7 948.5 53.3L960 52L960 101L948.5 101C937 101 914 101 891.2 101C868.3 101 845.7 101 822.8 101C800 101 777 101 754.2 101C731.3 101 708.7 101 685.8 101C663 101 640 101 617.2 101C594.3 101 571.7 101 548.8 101C526 101 503 101 480 101C457 101 434 101 411.2 101C388.3 101 365.7 101 342.8 101C320 101 297 101 274.2 101C251.3 101 228.7 101 205.8 101C183 101 160 101 137.2 101C114.3 101 91.7 101 68.8 101C46 101 23 101 11.5 101L0 101Z" fill="#c2e1ff"></path><path d="M0 44L11.5 42C23 40 46 36 68.8 34.7C91.7 33.3 114.3 34.7 137.2 37.5C160 40.3 183 44.7 205.8 51.2C228.7 57.7 251.3 66.3 274.2 64.2C297 62 320 49 342.8 46C365.7 43 388.3 50 411.2 53.2C434 56.3 457 55.7 480 53.5C503 51.3 526 47.7 548.8 51.2C571.7 54.7 594.3 65.3 617.2 64.8C640 64.3 663 52.7 685.8 48.7C708.7 44.7 731.3 48.3 754.2 52C777 55.7 800 59.3 822.8 58.2C845.7 57 868.3 51 891.2 47.8C914 44.7 937 44.3 948.5 44.2L960 44L960 101L948.5 101C937 101 914 101 891.2 101C868.3 101 845.7 101 822.8 101C800 101 777 101 754.2 101C731.3 101 708.7 101 685.8 101C663 101 640 101 617.2 101C594.3 101 571.7 101 548.8 101C526 101 503 101 480 101C457 101 434 101 411.2 101C388.3 101 365.7 101 342.8 101C320 101 297 101 274.2 101C251.3 101 228.7 101 205.8 101C183 101 160 101 137.2 101C114.3 101 91.7 101 68.8 101C46 101 23 101 11.5 101L0 101Z" fill="#a3d0ff"></path><path d="M0 84L11.5 77.5C23 71 46 58 68.8 54.5C91.7 51 114.3 57 137.2 60.8C160 64.7 183 66.3 205.8 69.3C228.7 72.3 251.3 76.7 274.2 73.5C297 70.3 320 59.7 342.8 56.7C365.7 53.7 388.3 58.3 411.2 57.3C434 56.3 457 49.7 480 52C503 54.3 526 65.7 548.8 65.8C571.7 66 594.3 55 617.2 55.2C640 55.3 663 66.7 685.8 67.7C708.7 68.7 731.3 59.3 754.2 55.7C777 52 800 54 822.8 53.8C845.7 53.7 868.3 51.3 891.2 50.8C914 50.3 937 51.7 948.5 52.3L960 53L960 101L948.5 101C937 101 914 101 891.2 101C868.3 101 845.7 101 822.8 101C800 101 777 101 754.2 101C731.3 101 708.7 101 685.8 101C663 101 640 101 617.2 101C594.3 101 571.7 101 548.8 101C526 101 503 101 480 101C457 101 434 101 411.2 101C388.3 101 365.7 101 342.8 101C320 101 297 101 274.2 101C251.3 101 228.7 101 205.8 101C183 101 160 101 137.2 101C114.3 101 91.7 101 68.8 101C46 101 23 101 11.5 101L0 101Z" fill="#84beff"></path><path d="M0 65L11.5 67.8C23 70.7 46 76.3 68.8 76C91.7 75.7 114.3 69.3 137.2 68.5C160 67.7 183 72.3 205.8 74.5C228.7 76.7 251.3 76.3 274.2 74.3C297 72.3 320 68.7 342.8 67.2C365.7 65.7 388.3 66.3 411.2 67.2C434 68 457 69 480 71.5C503 74 526 78 548.8 80.3C571.7 82.7 594.3 83.3 617.2 80.2C640 77 663 70 685.8 69C708.7 68 731.3 73 754.2 76.8C777 80.7 800 83.3 822.8 79.7C845.7 76 868.3 66 891.2 65.8C914 65.7 937 75.3 948.5 80.2L960 85L960 101L948.5 101C937 101 914 101 891.2 101C868.3 101 845.7 101 822.8 101C800 101 777 101 754.2 101C731.3 101 708.7 101 685.8 101C663 101 640 101 617.2 101C594.3 101 571.7 101 548.8 101C526 101 503 101 480 101C457 101 434 101 411.2 101C388.3 101 365.7 101 342.8 101C320 101 297 101 274.2 101C251.3 101 228.7 101 205.8 101C183 101 160 101 137.2 101C114.3 101 91.7 101 68.8 101C46 101 23 101 11.5 101L0 101Z" fill="#66acff"></path><path d="M0 89L11.5 88C23 87 46 85 68.8 83.7C91.7 82.3 114.3 81.7 137.2 82C160 82.3 183 83.7 205.8 82.2C228.7 80.7 251.3 76.3 274.2 76.8C297 77.3 320 82.7 342.8 84.5C365.7 86.3 388.3 84.7 411.2 82.5C434 80.3 457 77.7 480 75.7C503 73.7 526 72.3 548.8 72C571.7 71.7 594.3 72.3 617.2 72.5C640 72.7 663 72.3 685.8 73C708.7 73.7 731.3 75.3 754.2 78.7C777 82 800 87 822.8 87.8C845.7 88.7 868.3 85.3 891.2 82.5C914 79.7 937 77.3 948.5 76.2L960 75L960 101L948.5 101C937 101 914 101 891.2 101C868.3 101 845.7 101 822.8 101C800 101 777 101 754.2 101C731.3 101 708.7 101 685.8 101C663 101 640 101 617.2 101C594.3 101 571.7 101 548.8 101C526 101 503 101 480 101C457 101 434 101 411.2 101C388.3 101 365.7 101 342.8 101C320 101 297 101 274.2 101C251.3 101 228.7 101 205.8 101C183 101 160 101 137.2 101C114.3 101 91.7 101 68.8 101C46 101 23 101 11.5 101L0 101Z" fill="#4a98ff"></path><path d="M0 79L11.5 80.3C23 81.7 46 84.3 68.8 86.7C91.7 89 114.3 91 137.2 91.3C160 91.7 183 90.3 205.8 88.2C228.7 86 251.3 83 274.2 83.8C297 84.7 320 89.3 342.8 90.7C365.7 92 388.3 90 411.2 87.3C434 84.7 457 81.3 480 82.3C503 83.3 526 88.7 548.8 90.3C571.7 92 594.3 90 617.2 87.3C640 84.7 663 81.3 685.8 80C708.7 78.7 731.3 79.3 754.2 81.8C777 84.3 800 88.7 822.8 89.5C845.7 90.3 868.3 87.7 891.2 87.7C914 87.7 937 90.3 948.5 91.7L960 93L960 101L948.5 101C937 101 914 101 891.2 101C868.3 101 845.7 101 822.8 101C800 101 777 101 754.2 101C731.3 101 708.7 101 685.8 101C663 101 640 101 617.2 101C594.3 101 571.7 101 548.8 101C526 101 503 101 480 101C457 101 434 101 411.2 101C388.3 101 365.7 101 342.8 101C320 101 297 101 274.2 101C251.3 101 228.7 101 205.8 101C183 101 160 101 137.2 101C114.3 101 91.7 101 68.8 101C46 101 23 101 11.5 101L0 101Z" fill="#3284ff"></path></svg>