<svg id="visual" viewBox="0 0 960 540" width="960" height="540" xmlns="http://www.w3.org/2000/svg" xmlns:xlink="http://www.w3.org/1999/xlink" version="1.1"><path d="M0 188L20 190.2C40 192.3 80 196.7 120 199C160 201.3 200 201.7 240 198.5C280 195.3 320 188.7 360 205.8C400 223 440 264 480 264C520 264 560 223 600 226.3C640 229.7 680 277.3 720 276.3C760 275.3 800 225.7 840 226.7C880 227.7 920 279.3 940 305.2L960 331L960 0L940 0C920 0 880 0 840 0C800 0 760 0 720 0C680 0 640 0 600 0C560 0 520 0 480 0C440 0 400 0 360 0C320 0 280 0 240 0C200 0 160 0 120 0C80 0 40 0 20 0L0 0Z" fill="#e3f2ff"></path><path d="M0 294L20 276.2C40 258.3 80 222.7 120 211.5C160 200.3 200 213.7 240 210C280 206.3 320 185.7 360 182.8C400 180 440 195 480 206.2C520 217.3 560 224.7 600 224C640 223.3 680 214.7 720 219C760 223.3 800 240.7 840 255.7C880 270.7 920 283.3 940 289.7L960 296L960 0L940 0C920 0 880 0 840 0C800 0 760 0 720 0C680 0 640 0 600 0C560 0 520 0 480 0C440 0 400 0 360 0C320 0 280 0 240 0C200 0 160 0 120 0C80 0 40 0 20 0L0 0Z" fill="#c2e1ff"></path><path d="M0 232L20 214.5C40 197 80 162 120 144C160 126 200 125 240 131.5C280 138 320 152 360 152.2C400 152.3 440 138.7 480 137.7C520 136.7 560 148.3 600 156.3C640 164.3 680 168.7 720 164.3C760 160 800 147 840 142.7C880 138.3 920 142.7 940 144.8L960 147L960 0L940 0C920 0 880 0 840 0C800 0 760 0 720 0C680 0 640 0 600 0C560 0 520 0 480 0C440 0 400 0 360 0C320 0 280 0 240 0C200 0 160 0 120 0C80 0 40 0 20 0L0 0Z" fill="#a3d0ff"></path><path d="M0 109L20 125.5C40 142 80 175 120 179.7C160 184.3 200 160.7 240 142.5C280 124.3 320 111.7 360 108.2C400 104.7 440 110.3 480 127.3C520 144.3 560 172.7 600 186.2C640 199.7 680 198.3 720 191.3C760 184.3 800 171.7 840 161.2C880 150.7 920 142.3 940 138.2L960 134L960 0L940 0C920 0 880 0 840 0C800 0 760 0 720 0C680 0 640 0 600 0C560 0 520 0 480 0C440 0 400 0 360 0C320 0 280 0 240 0C200 0 160 0 120 0C80 0 40 0 20 0L0 0Z" fill="#84beff"></path><path d="M0 93L20 97.3C40 101.7 80 110.3 120 114.5C160 118.7 200 118.3 240 112.2C280 106 320 94 360 89.3C400 84.7 440 87.3 480 92.3C520 97.3 560 104.7 600 114.8C640 125 680 138 720 137.2C760 136.3 800 121.7 840 110.8C880 100 920 93 940 89.5L960 86L960 0L940 0C920 0 880 0 840 0C800 0 760 0 720 0C680 0 640 0 600 0C560 0 520 0 480 0C440 0 400 0 360 0C320 0 280 0 240 0C200 0 160 0 120 0C80 0 40 0 20 0L0 0Z" fill="#66acff"></path><path d="M0 49L20 48.8C40 48.7 80 48.3 120 49.8C160 51.3 200 54.7 240 55.5C280 56.3 320 54.7 360 55.7C400 56.7 440 60.3 480 69.3C520 78.3 560 92.7 600 96.3C640 100 680 93 720 85.7C760 78.3 800 70.7 840 75.2C880 79.7 920 96.3 940 104.7L960 113L960 0L940 0C920 0 880 0 840 0C800 0 760 0 720 0C680 0 640 0 600 0C560 0 520 0 480 0C440 0 400 0 360 0C320 0 280 0 240 0C200 0 160 0 120 0C80 0 40 0 20 0L0 0Z" fill="#4a98ff"></path><path d="M0 18L20 23.2C40 28.3 80 38.7 120 43C160 47.3 200 45.7 240 42C280 38.3 320 32.7 360 35.8C400 39 440 51 480 53C520 55 560 47 600 46.8C640 46.7 680 54.3 720 51C760 47.7 800 33.3 840 34.2C880 35 920 51 940 59L960 67L960 0L940 0C920 0 880 0 840 0C800 0 760 0 720 0C680 0 640 0 600 0C560 0 520 0 480 0C440 0 400 0 360 0C320 0 280 0 240 0C200 0 160 0 120 0C80 0 40 0 20 0L0 0Z" fill="#3284ff"></path></svg>