<svg id="visual" viewBox="0 0 900 100" width="900" height="100" xmlns="http://www.w3.org/2000/svg" xmlns:xlink="http://www.w3.org/1999/xlink" version="1.1"><rect x="0" y="0" width="900" height="100" fill="#ffffff"></rect><path d="M0 35L10 36C20 37 40 39 60 40.3C80 41.7 100 42.3 120 45.3C140 48.3 160 53.7 180 50.3C200 47 220 35 240 31.8C260 28.7 280 34.3 300 40.7C320 47 340 54 360 49.5C380 45 400 29 420 20.7C440 12.3 460 11.7 480 15.3C500 19 520 27 540 35C560 43 580 51 600 52C620 53 640 47 660 43.8C680 40.7 700 40.3 720 39.8C740 39.3 760 38.7 780 35.2C800 31.7 820 25.3 840 22.2C860 19 880 19 890 19L900 19L900 101L890 101C880 101 860 101 840 101C820 101 800 101 780 101C760 101 740 101 720 101C700 101 680 101 660 101C640 101 620 101 600 101C580 101 560 101 540 101C520 101 500 101 480 101C460 101 440 101 420 101C400 101 380 101 360 101C340 101 320 101 300 101C280 101 260 101 240 101C220 101 200 101 180 101C160 101 140 101 120 101C100 101 80 101 60 101C40 101 20 101 10 101L0 101Z" fill="#fff0f0"></path><path d="M0 50L10 50C20 50 40 50 60 48.8C80 47.7 100 45.3 120 42C140 38.7 160 34.3 180 31.5C200 28.7 220 27.3 240 30.8C260 34.3 280 42.7 300 41.3C320 40 340 29 360 29.2C380 29.3 400 40.7 420 42.7C440 44.7 460 37.3 480 32C500 26.7 520 23.3 540 27.7C560 32 580 44 600 45C620 46 640 36 660 31.2C680 26.3 700 26.7 720 27.5C740 28.3 760 29.7 780 33.2C800 36.7 820 42.3 840 41.8C860 41.3 880 34.7 890 31.3L900 28L900 101L890 101C880 101 860 101 840 101C820 101 800 101 780 101C760 101 740 101 720 101C700 101 680 101 660 101C640 101 620 101 600 101C580 101 560 101 540 101C520 101 500 101 480 101C460 101 440 101 420 101C400 101 380 101 360 101C340 101 320 101 300 101C280 101 260 101 240 101C220 101 200 101 180 101C160 101 140 101 120 101C100 101 80 101 60 101C40 101 20 101 10 101L0 101Z" fill="#ffeaea"></path><path d="M0 30L10 34.3C20 38.7 40 47.3 60 47.7C80 48 100 40 120 38.7C140 37.3 160 42.7 180 45.8C200 49 220 50 240 51.2C260 52.3 280 53.7 300 56.2C320 58.7 340 62.3 360 59.3C380 56.3 400 46.7 420 45.3C440 44 460 51 480 55C500 59 520 60 540 56.7C560 53.3 580 45.7 600 42.3C620 39 640 40 660 41.8C680 43.7 700 46.3 720 49.5C740 52.7 760 56.3 780 55.5C800 54.7 820 49.3 840 48.5C860 47.7 880 51.3 890 53.2L900 55L900 101L890 101C880 101 860 101 840 101C820 101 800 101 780 101C760 101 740 101 720 101C700 101 680 101 660 101C640 101 620 101 600 101C580 101 560 101 540 101C520 101 500 101 480 101C460 101 440 101 420 101C400 101 380 101 360 101C340 101 320 101 300 101C280 101 260 101 240 101C220 101 200 101 180 101C160 101 140 101 120 101C100 101 80 101 60 101C40 101 20 101 10 101L0 101Z" fill="#ffe3e3"></path><path d="M0 39L10 38.7C20 38.3 40 37.7 60 38.2C80 38.7 100 40.3 120 45C140 49.7 160 57.3 180 61.5C200 65.7 220 66.3 240 67.2C260 68 280 69 300 64.7C320 60.3 340 50.7 360 48.7C380 46.7 400 52.3 420 56.8C440 61.3 460 64.7 480 61.5C500 58.3 520 48.7 540 44.5C560 40.3 580 41.7 600 40.5C620 39.3 640 35.7 660 36.7C680 37.7 700 43.3 720 44.2C740 45 760 41 780 41.7C800 42.3 820 47.7 840 49C860 50.3 880 47.7 890 46.3L900 45L900 101L890 101C880 101 860 101 840 101C820 101 800 101 780 101C760 101 740 101 720 101C700 101 680 101 660 101C640 101 620 101 600 101C580 101 560 101 540 101C520 101 500 101 480 101C460 101 440 101 420 101C400 101 380 101 360 101C340 101 320 101 300 101C280 101 260 101 240 101C220 101 200 101 180 101C160 101 140 101 120 101C100 101 80 101 60 101C40 101 20 101 10 101L0 101Z" fill="#ffdddd"></path><path d="M0 60L10 62C20 64 40 68 60 69.8C80 71.7 100 71.3 120 70.2C140 69 160 67 180 65C200 63 220 61 240 62.3C260 63.7 280 68.3 300 66.5C320 64.7 340 56.3 360 54.7C380 53 400 58 420 58.2C440 58.3 460 53.7 480 52.3C500 51 520 53 540 55.3C560 57.7 580 60.3 600 61.5C620 62.7 640 62.3 660 63C680 63.7 700 65.3 720 65.2C740 65 760 63 780 61.7C800 60.3 820 59.7 840 57.5C860 55.3 880 51.7 890 49.8L900 48L900 101L890 101C880 101 860 101 840 101C820 101 800 101 780 101C760 101 740 101 720 101C700 101 680 101 660 101C640 101 620 101 600 101C580 101 560 101 540 101C520 101 500 101 480 101C460 101 440 101 420 101C400 101 380 101 360 101C340 101 320 101 300 101C280 101 260 101 240 101C220 101 200 101 180 101C160 101 140 101 120 101C100 101 80 101 60 101C40 101 20 101 10 101L0 101Z" fill="#ffd7d7"></path><path d="M0 68L10 65C20 62 40 56 60 53.5C80 51 100 52 120 54.7C140 57.3 160 61.7 180 63.5C200 65.3 220 64.7 240 63C260 61.3 280 58.7 300 59.5C320 60.3 340 64.7 360 67.3C380 70 400 71 420 71.3C440 71.7 460 71.3 480 70.5C500 69.7 520 68.3 540 64.8C560 61.3 580 55.7 600 57.3C620 59 640 68 660 72.2C680 76.3 700 75.7 720 70.5C740 65.3 760 55.7 780 53.7C800 51.7 820 57.3 840 61.5C860 65.7 880 68.3 890 69.7L900 71L900 101L890 101C880 101 860 101 840 101C820 101 800 101 780 101C760 101 740 101 720 101C700 101 680 101 660 101C640 101 620 101 600 101C580 101 560 101 540 101C520 101 500 101 480 101C460 101 440 101 420 101C400 101 380 101 360 101C340 101 320 101 300 101C280 101 260 101 240 101C220 101 200 101 180 101C160 101 140 101 120 101C100 101 80 101 60 101C40 101 20 101 10 101L0 101Z" fill="#ffd0d0"></path><path d="M0 60L10 62.2C20 64.3 40 68.7 60 70.8C80 73 100 73 120 71.3C140 69.7 160 66.3 180 67.5C200 68.7 220 74.3 240 76.2C260 78 280 76 300 76C320 76 340 78 360 75.2C380 72.3 400 64.7 420 60C440 55.3 460 53.7 480 57.5C500 61.3 520 70.7 540 74.7C560 78.7 580 77.3 600 73.2C620 69 640 62 660 62.5C680 63 700 71 720 74.3C740 77.7 760 76.3 780 74.7C800 73 820 71 840 71.8C860 72.7 880 76.3 890 78.2L900 80L900 101L890 101C880 101 860 101 840 101C820 101 800 101 780 101C760 101 740 101 720 101C700 101 680 101 660 101C640 101 620 101 600 101C580 101 560 101 540 101C520 101 500 101 480 101C460 101 440 101 420 101C400 101 380 101 360 101C340 101 320 101 300 101C280 101 260 101 240 101C220 101 200 101 180 101C160 101 140 101 120 101C100 101 80 101 60 101C40 101 20 101 10 101L0 101Z" fill="#ffcaca"></path><path d="M0 70L10 69.7C20 69.3 40 68.7 60 70.3C80 72 100 76 120 77.2C140 78.3 160 76.7 180 73.2C200 69.7 220 64.3 240 64.7C260 65 280 71 300 74C320 77 340 77 360 76.2C380 75.3 400 73.7 420 74.5C440 75.3 460 78.7 480 79.7C500 80.7 520 79.3 540 75.8C560 72.3 580 66.7 600 65.3C620 64 640 67 660 67.8C680 68.7 700 67.3 720 68C740 68.7 760 71.3 780 72.2C800 73 820 72 840 73C860 74 880 77 890 78.5L900 80L900 101L890 101C880 101 860 101 840 101C820 101 800 101 780 101C760 101 740 101 720 101C700 101 680 101 660 101C640 101 620 101 600 101C580 101 560 101 540 101C520 101 500 101 480 101C460 101 440 101 420 101C400 101 380 101 360 101C340 101 320 101 300 101C280 101 260 101 240 101C220 101 200 101 180 101C160 101 140 101 120 101C100 101 80 101 60 101C40 101 20 101 10 101L0 101Z" fill="#ffc3c3"></path><path d="M0 76L10 76.2C20 76.3 40 76.7 60 78.3C80 80 100 83 120 82.2C140 81.3 160 76.7 180 76.7C200 76.7 220 81.3 240 80.8C260 80.3 280 74.7 300 71.3C320 68 340 67 360 68.3C380 69.7 400 73.3 420 75.3C440 77.3 460 77.7 480 79.3C500 81 520 84 540 84.2C560 84.3 580 81.7 600 78.7C620 75.7 640 72.3 660 70.2C680 68 700 67 720 69.8C740 72.7 760 79.3 780 81.7C800 84 820 82 840 80.3C860 78.7 880 77.3 890 76.7L900 76L900 101L890 101C880 101 860 101 840 101C820 101 800 101 780 101C760 101 740 101 720 101C700 101 680 101 660 101C640 101 620 101 600 101C580 101 560 101 540 101C520 101 500 101 480 101C460 101 440 101 420 101C400 101 380 101 360 101C340 101 320 101 300 101C280 101 260 101 240 101C220 101 200 101 180 101C160 101 140 101 120 101C100 101 80 101 60 101C40 101 20 101 10 101L0 101Z" fill="#ffbdbd"></path><path d="M0 83L10 83C20 83 40 83 60 81.2C80 79.3 100 75.7 120 76.7C140 77.7 160 83.3 180 84.8C200 86.3 220 83.7 240 81.5C260 79.3 280 77.7 300 76.8C320 76 340 76 360 75.5C380 75 400 74 420 73.5C440 73 460 73 480 74.8C500 76.7 520 80.3 540 82.8C560 85.3 580 86.7 600 86.7C620 86.7 640 85.3 660 84.8C680 84.3 700 84.7 720 83.3C740 82 760 79 780 78C800 77 820 78 840 79.2C860 80.3 880 81.7 890 82.3L900 83L900 101L890 101C880 101 860 101 840 101C820 101 800 101 780 101C760 101 740 101 720 101C700 101 680 101 660 101C640 101 620 101 600 101C580 101 560 101 540 101C520 101 500 101 480 101C460 101 440 101 420 101C400 101 380 101 360 101C340 101 320 101 300 101C280 101 260 101 240 101C220 101 200 101 180 101C160 101 140 101 120 101C100 101 80 101 60 101C40 101 20 101 10 101L0 101Z" fill="#ffb6b6"></path><path d="M0 79L10 80.7C20 82.3 40 85.7 60 85.7C80 85.7 100 82.3 120 82.8C140 83.3 160 87.7 180 88.7C200 89.7 220 87.3 240 85.7C260 84 280 83 300 82.2C320 81.3 340 80.7 360 80.5C380 80.3 400 80.7 420 81C440 81.3 460 81.7 480 82.5C500 83.3 520 84.7 540 86.5C560 88.3 580 90.7 600 90.5C620 90.3 640 87.7 660 87.8C680 88 700 91 720 91.7C740 92.3 760 90.7 780 89.5C800 88.3 820 87.7 840 86.3C860 85 880 83 890 82L900 81L900 101L890 101C880 101 860 101 840 101C820 101 800 101 780 101C760 101 740 101 720 101C700 101 680 101 660 101C640 101 620 101 600 101C580 101 560 101 540 101C520 101 500 101 480 101C460 101 440 101 420 101C400 101 380 101 360 101C340 101 320 101 300 101C280 101 260 101 240 101C220 101 200 101 180 101C160 101 140 101 120 101C100 101 80 101 60 101C40 101 20 101 10 101L0 101Z" fill="#ffb0b0"></path><path d="M0 94L10 93.2C20 92.3 40 90.7 60 91C80 91.3 100 93.7 120 94.5C140 95.3 160 94.7 180 93.3C200 92 220 90 240 89.8C260 89.7 280 91.3 300 91.7C320 92 340 91 360 90.8C380 90.7 400 91.3 420 91.2C440 91 460 90 480 90C500 90 520 91 540 92.2C560 93.3 580 94.7 600 94C620 93.3 640 90.7 660 90.2C680 89.7 700 91.3 720 91.7C740 92 760 91 780 91.3C800 91.7 820 93.3 840 94C860 94.7 880 94.3 890 94.2L900 94L900 101L890 101C880 101 860 101 840 101C820 101 800 101 780 101C760 101 740 101 720 101C700 101 680 101 660 101C640 101 620 101 600 101C580 101 560 101 540 101C520 101 500 101 480 101C460 101 440 101 420 101C400 101 380 101 360 101C340 101 320 101 300 101C280 101 260 101 240 101C220 101 200 101 180 101C160 101 140 101 120 101C100 101 80 101 60 101C40 101 20 101 10 101L0 101Z" fill="#ffa9a9"></path></svg>