<svg id="visual" viewBox="0 0 800 960" width="800" height="960" xmlns="http://www.w3.org/2000/svg" xmlns:xlink="http://www.w3.org/1999/xlink" version="1.1"><rect x="0" y="0" width="800" height="960" fill="#001220"></rect><path d="M607 0L594.7 17.8C582.3 35.7 557.7 71.3 560.8 106.8C564 142.3 595 177.7 592.7 213.2C590.3 248.7 554.7 284.3 553 320C551.3 355.7 583.7 391.3 599.8 426.8C616 462.3 616 497.7 602.3 533.2C588.7 568.7 561.3 604.3 539.3 640C517.3 675.7 500.7 711.3 504.7 746.8C508.7 782.3 533.3 817.7 545 853.2C556.7 888.7 555.3 924.3 554.7 942.2L554 960L0 960L0 942.2C0 924.3 0 888.7 0 853.2C0 817.7 0 782.3 0 746.8C0 711.3 0 675.7 0 640C0 604.3 0 568.7 0 533.2C0 497.7 0 462.3 0 426.8C0 391.3 0 355.7 0 320C0 284.3 0 248.7 0 213.2C0 177.7 0 142.3 0 106.8C0 71.3 0 35.7 0 17.8L0 0Z" fill="#89b6ff"></path><path d="M393 0L401.2 17.8C409.3 35.7 425.7 71.3 416.7 106.8C407.7 142.3 373.3 177.7 356.8 213.2C340.3 248.7 341.7 284.3 352.5 320C363.3 355.7 383.7 391.3 393.8 426.8C404 462.3 404 497.7 401.7 533.2C399.3 568.7 394.7 604.3 392 640C389.3 675.7 388.7 711.3 381 746.8C373.3 782.3 358.7 817.7 353 853.2C347.3 888.7 350.7 924.3 352.3 942.2L354 960L0 960L0 942.2C0 924.3 0 888.7 0 853.2C0 817.7 0 782.3 0 746.8C0 711.3 0 675.7 0 640C0 604.3 0 568.7 0 533.2C0 497.7 0 462.3 0 426.8C0 391.3 0 355.7 0 320C0 284.3 0 248.7 0 213.2C0 177.7 0 142.3 0 106.8C0 71.3 0 35.7 0 17.8L0 0Z" fill="#4896ff"></path><path d="M272 0L249 17.8C226 35.7 180 71.3 180.3 106.8C180.7 142.3 227.3 177.7 233.8 213.2C240.3 248.7 206.7 284.3 190 320C173.3 355.7 173.7 391.3 170.8 426.8C168 462.3 162 497.7 167.2 533.2C172.3 568.7 188.7 604.3 184 640C179.3 675.7 153.7 711.3 148 746.8C142.3 782.3 156.7 817.7 157.8 853.2C159 888.7 147 924.3 141 942.2L135 960L0 960L0 942.2C0 924.3 0 888.7 0 853.2C0 817.7 0 782.3 0 746.8C0 711.3 0 675.7 0 640C0 604.3 0 568.7 0 533.2C0 497.7 0 462.3 0 426.8C0 391.3 0 355.7 0 320C0 284.3 0 248.7 0 213.2C0 177.7 0 142.3 0 106.8C0 71.3 0 35.7 0 17.8L0 0Z" fill="#336cc2"></path></svg>