<svg id="visual" viewBox="0 0 960 540" width="960" height="540" xmlns="http://www.w3.org/2000/svg" xmlns:xlink="http://www.w3.org/1999/xlink" version="1.1"><rect x="0" y="0" width="960" height="540" fill="#ffffff"></rect><path d="M0 146L22.8 156C45.7 166 91.3 186 137 185.5C182.7 185 228.3 164 274 162.2C319.7 160.3 365.3 177.7 411.2 196.2C457 214.7 503 234.3 548.8 228.8C594.7 223.3 640.3 192.7 686 180.7C731.7 168.7 777.3 175.3 823 183.2C868.7 191 914.3 200 937.2 204.5L960 209L960 0L937.2 0C914.3 0 868.7 0 823 0C777.3 0 731.7 0 686 0C640.3 0 594.7 0 548.8 0C503 0 457 0 411.2 0C365.3 0 319.7 0 274 0C228.3 0 182.7 0 137 0C91.3 0 45.7 0 22.8 0L0 0Z" fill="#fff0f0"></path><path d="M0 236L22.8 229.5C45.7 223 91.3 210 137 199.5C182.7 189 228.3 181 274 173.5C319.7 166 365.3 159 411.2 170.3C457 181.7 503 211.3 548.8 224C594.7 236.7 640.3 232.3 686 217.3C731.7 202.3 777.3 176.7 823 173C868.7 169.3 914.3 187.7 937.2 196.8L960 206L960 0L937.2 0C914.3 0 868.7 0 823 0C777.3 0 731.7 0 686 0C640.3 0 594.7 0 548.8 0C503 0 457 0 411.2 0C365.3 0 319.7 0 274 0C228.3 0 182.7 0 137 0C91.3 0 45.7 0 22.8 0L0 0Z" fill="#ffeaea"></path><path d="M0 124L22.8 128.7C45.7 133.3 91.3 142.7 137 152.7C182.7 162.7 228.3 173.3 274 182.8C319.7 192.3 365.3 200.7 411.2 201C457 201.3 503 193.7 548.8 186C594.7 178.3 640.3 170.7 686 170.7C731.7 170.7 777.3 178.3 823 174.3C868.7 170.3 914.3 154.7 937.2 146.8L960 139L960 0L937.2 0C914.3 0 868.7 0 823 0C777.3 0 731.7 0 686 0C640.3 0 594.7 0 548.8 0C503 0 457 0 411.2 0C365.3 0 319.7 0 274 0C228.3 0 182.7 0 137 0C91.3 0 45.7 0 22.8 0L0 0Z" fill="#ffe3e3"></path><path d="M0 122L22.8 123C45.7 124 91.3 126 137 130.2C182.7 134.3 228.3 140.7 274 145.8C319.7 151 365.3 155 411.2 153.3C457 151.7 503 144.3 548.8 137C594.7 129.7 640.3 122.3 686 128.8C731.7 135.3 777.3 155.7 823 168.5C868.7 181.3 914.3 186.7 937.2 189.3L960 192L960 0L937.2 0C914.3 0 868.7 0 823 0C777.3 0 731.7 0 686 0C640.3 0 594.7 0 548.8 0C503 0 457 0 411.2 0C365.3 0 319.7 0 274 0C228.3 0 182.7 0 137 0C91.3 0 45.7 0 22.8 0L0 0Z" fill="#ffdddd"></path><path d="M0 138L22.8 134.2C45.7 130.3 91.3 122.7 137 122.2C182.7 121.7 228.3 128.3 274 127C319.7 125.7 365.3 116.3 411.2 114.3C457 112.3 503 117.7 548.8 122.7C594.7 127.7 640.3 132.3 686 130.8C731.7 129.3 777.3 121.7 823 126.8C868.7 132 914.3 150 937.2 159L960 168L960 0L937.2 0C914.3 0 868.7 0 823 0C777.3 0 731.7 0 686 0C640.3 0 594.7 0 548.8 0C503 0 457 0 411.2 0C365.3 0 319.7 0 274 0C228.3 0 182.7 0 137 0C91.3 0 45.7 0 22.8 0L0 0Z" fill="#ffd7d7"></path><path d="M0 97L22.8 96.7C45.7 96.3 91.3 95.7 137 99.2C182.7 102.7 228.3 110.3 274 117.7C319.7 125 365.3 132 411.2 137.2C457 142.3 503 145.7 548.8 138.8C594.7 132 640.3 115 686 112.7C731.7 110.3 777.3 122.7 823 132.2C868.7 141.7 914.3 148.3 937.2 151.7L960 155L960 0L937.2 0C914.3 0 868.7 0 823 0C777.3 0 731.7 0 686 0C640.3 0 594.7 0 548.8 0C503 0 457 0 411.2 0C365.3 0 319.7 0 274 0C228.3 0 182.7 0 137 0C91.3 0 45.7 0 22.8 0L0 0Z" fill="#ffd0d0"></path><path d="M0 115L22.8 117C45.7 119 91.3 123 137 122C182.7 121 228.3 115 274 114.8C319.7 114.7 365.3 120.3 411.2 120C457 119.7 503 113.3 548.8 111C594.7 108.7 640.3 110.3 686 107.3C731.7 104.3 777.3 96.7 823 90.8C868.7 85 914.3 81 937.2 79L960 77L960 0L937.2 0C914.3 0 868.7 0 823 0C777.3 0 731.7 0 686 0C640.3 0 594.7 0 548.8 0C503 0 457 0 411.2 0C365.3 0 319.7 0 274 0C228.3 0 182.7 0 137 0C91.3 0 45.7 0 22.8 0L0 0Z" fill="#ffcaca"></path><path d="M0 103L22.8 100.7C45.7 98.3 91.3 93.7 137 87C182.7 80.3 228.3 71.7 274 72.8C319.7 74 365.3 85 411.2 86C457 87 503 78 548.8 74.3C594.7 70.7 640.3 72.3 686 73.2C731.7 74 777.3 74 823 72.5C868.7 71 914.3 68 937.2 66.5L960 65L960 0L937.2 0C914.3 0 868.7 0 823 0C777.3 0 731.7 0 686 0C640.3 0 594.7 0 548.8 0C503 0 457 0 411.2 0C365.3 0 319.7 0 274 0C228.3 0 182.7 0 137 0C91.3 0 45.7 0 22.8 0L0 0Z" fill="#ffc3c3"></path><path d="M0 54L22.8 54.5C45.7 55 91.3 56 137 63.2C182.7 70.3 228.3 83.7 274 89.7C319.7 95.7 365.3 94.3 411.2 88C457 81.7 503 70.3 548.8 67.3C594.7 64.3 640.3 69.7 686 75.7C731.7 81.7 777.3 88.3 823 86.7C868.7 85 914.3 75 937.2 70L960 65L960 0L937.2 0C914.3 0 868.7 0 823 0C777.3 0 731.7 0 686 0C640.3 0 594.7 0 548.8 0C503 0 457 0 411.2 0C365.3 0 319.7 0 274 0C228.3 0 182.7 0 137 0C91.3 0 45.7 0 22.8 0L0 0Z" fill="#ffbdbd"></path><path d="M0 41L22.8 46.5C45.7 52 91.3 63 137 64.5C182.7 66 228.3 58 274 55.8C319.7 53.7 365.3 57.3 411.2 59.8C457 62.3 503 63.7 548.8 64.7C594.7 65.7 640.3 66.3 686 63.8C731.7 61.3 777.3 55.7 823 53.5C868.7 51.3 914.3 52.7 937.2 53.3L960 54L960 0L937.2 0C914.3 0 868.7 0 823 0C777.3 0 731.7 0 686 0C640.3 0 594.7 0 548.8 0C503 0 457 0 411.2 0C365.3 0 319.7 0 274 0C228.3 0 182.7 0 137 0C91.3 0 45.7 0 22.8 0L0 0Z" fill="#ffb6b6"></path><path d="M0 54L22.8 49.5C45.7 45 91.3 36 137 35.5C182.7 35 228.3 43 274 45.7C319.7 48.3 365.3 45.7 411.2 43.3C457 41 503 39 548.8 37C594.7 35 640.3 33 686 33.7C731.7 34.3 777.3 37.7 823 41.5C868.7 45.3 914.3 49.7 937.2 51.8L960 54L960 0L937.2 0C914.3 0 868.7 0 823 0C777.3 0 731.7 0 686 0C640.3 0 594.7 0 548.8 0C503 0 457 0 411.2 0C365.3 0 319.7 0 274 0C228.3 0 182.7 0 137 0C91.3 0 45.7 0 22.8 0L0 0Z" fill="#ffb0b0"></path><path d="M0 17L22.8 19.2C45.7 21.3 91.3 25.7 137 28C182.7 30.3 228.3 30.7 274 30.3C319.7 30 365.3 29 411.2 26.3C457 23.7 503 19.3 548.8 17.7C594.7 16 640.3 17 686 18.8C731.7 20.7 777.3 23.3 823 25.3C868.7 27.3 914.3 28.7 937.2 29.3L960 30L960 0L937.2 0C914.3 0 868.7 0 823 0C777.3 0 731.7 0 686 0C640.3 0 594.7 0 548.8 0C503 0 457 0 411.2 0C365.3 0 319.7 0 274 0C228.3 0 182.7 0 137 0C91.3 0 45.7 0 22.8 0L0 0Z" fill="#ffa9a9"></path></svg>